<svg width="47" height="47" viewBox="0 0 47 47" fill="none" xmlns="http://www.w3.org/2000/svg">
<g opacity="0.8" clip-path="url(#clip0_126_27)">
<path d="M43.2202 3.69604H0.273804V46.7242H43.2202V3.69604Z" stroke="white" stroke-width="1.71533"/>
<path d="M46.7263 0.275757H3.99902V43.3039H46.7263V0.275757Z" stroke="white" stroke-width="1.71533"/>
<path d="M15.7816 20.9072L13.9558 25.1549H12.9917L11.172 20.9072H12.2265L13.5099 23.9413L14.8115 20.9072H15.7816ZM19.0017 23.5347C19.0017 23.5468 18.9957 23.6318 18.9836 23.7896H16.5312C16.5754 23.9918 16.6799 24.1517 16.8445 24.2689C17.0092 24.3862 17.2141 24.4449 17.4592 24.4449C17.6279 24.4449 17.7765 24.4206 17.905 24.3721C18.0376 24.3195 18.1601 24.2386 18.2726 24.1294L18.7727 24.6755C18.4674 25.0274 18.0215 25.2034 17.435 25.2034C17.0695 25.2034 16.7462 25.1326 16.4649 24.991C16.1837 24.8454 15.9668 24.6452 15.8142 24.3903C15.6615 24.1354 15.5852 23.8462 15.5852 23.5226C15.5852 23.2029 15.6595 22.9158 15.8081 22.6609C15.9607 22.402 16.1677 22.2017 16.4288 22.0602C16.6939 21.9145 16.9892 21.8417 17.3145 21.8417C17.6319 21.8417 17.9191 21.9104 18.1762 22.048C18.4333 22.1856 18.6342 22.3838 18.7788 22.6427C18.9274 22.8976 19.0017 23.1949 19.0017 23.5347ZM17.3206 22.5577C17.1077 22.5577 16.9289 22.6184 16.7843 22.7398C16.6397 22.8611 16.5513 23.027 16.5192 23.2374H18.1159C18.0838 23.0311 17.9954 22.8672 17.8508 22.7459C17.7062 22.6204 17.5295 22.5577 17.3206 22.5577ZM21.5979 21.8417C21.9996 21.8417 22.323 21.9631 22.568 22.2058C22.8172 22.4485 22.9416 22.8085 22.9416 23.2859V25.1549H22.0016V23.4315C22.0016 23.1726 21.9454 22.9805 21.8329 22.8551C21.7205 22.7257 21.5578 22.6609 21.3448 22.6609C21.1078 22.6609 20.9191 22.7357 20.7784 22.8854C20.6378 23.0311 20.5675 23.2495 20.5675 23.5408V25.1549H19.6275V21.8903H20.5253V22.2725C20.6499 22.135 20.8046 22.0298 20.9893 21.957C21.1741 21.8801 21.377 21.8417 21.5979 21.8417ZM25.8846 24.9971C25.7922 25.0658 25.6777 25.1185 25.5412 25.1549C25.4086 25.1872 25.2679 25.2034 25.1194 25.2034C24.7337 25.2034 24.4344 25.1043 24.2216 24.9061C24.0126 24.7078 23.9082 24.4166 23.9082 24.0323V22.6912H23.4081V21.9631H23.9082V21.1682H24.8482V21.9631H25.6557V22.6912H24.8482V24.0201C24.8482 24.1577 24.8823 24.2649 24.9507 24.3418C25.023 24.4146 25.1233 24.451 25.2519 24.451C25.4005 24.451 25.527 24.4105 25.6316 24.3296L25.8846 24.9971ZM29.6782 21.8903V25.1549H28.7864V24.7665C28.6618 24.9081 28.5132 25.0173 28.3405 25.0942C28.1677 25.167 27.9809 25.2034 27.7801 25.2034C27.3542 25.2034 27.0168 25.0801 26.7678 24.8333C26.5188 24.5865 26.3942 24.2204 26.3942 23.7349V21.8903H27.3342V23.5954C27.3342 24.1213 27.5531 24.3842 27.991 24.3842C28.2159 24.3842 28.3967 24.3114 28.5333 24.1658C28.6699 24.0161 28.7382 23.7956 28.7382 23.5044V21.8903H29.6782ZM31.4469 22.3211C31.5594 22.1633 31.71 22.0439 31.8988 21.9631C32.0916 21.8822 32.3126 21.8417 32.5616 21.8417V22.7155C32.4572 22.7075 32.3869 22.7034 32.3507 22.7034C32.0815 22.7034 31.8706 22.7803 31.718 22.934C31.5654 23.0837 31.489 23.3102 31.489 23.6136V25.1549H30.549V21.8903H31.4469V22.3211ZM36.2666 23.5347C36.2666 23.5468 36.2606 23.6318 36.2485 23.7896H33.7961C33.8402 23.9918 33.9448 24.1517 34.1094 24.2689C34.2741 24.3862 34.479 24.4449 34.724 24.4449C34.8928 24.4449 35.0414 24.4206 35.1699 24.3721C35.3025 24.3195 35.425 24.2386 35.5375 24.1294L36.0376 24.6755C35.7323 25.0274 35.2864 25.2034 34.6999 25.2034C34.3343 25.2034 34.011 25.1326 33.7298 24.991C33.4486 24.8454 33.2316 24.6452 33.079 24.3903C32.9264 24.1354 32.8501 23.8462 32.8501 23.5226C32.8501 23.2029 32.9243 22.9158 33.073 22.6609C33.2256 22.402 33.4326 22.2017 33.6937 22.0602C33.9588 21.9145 34.254 21.8417 34.5794 21.8417C34.8968 21.8417 35.184 21.9104 35.4411 22.048C35.6982 22.1856 35.899 22.3838 36.0437 22.6427C36.1923 22.8976 36.2666 23.1949 36.2666 23.5347ZM34.5854 22.5577C34.3726 22.5577 34.1938 22.6184 34.0492 22.7398C33.9046 22.8611 33.8161 23.027 33.784 23.2374H35.3808C35.3487 23.0311 35.2603 22.8672 35.1157 22.7459C34.9711 22.6204 34.7944 22.5577 34.5854 22.5577ZM37.983 25.2034C37.714 25.2034 37.4508 25.1711 37.1937 25.1063C36.9367 25.0376 36.7318 24.9526 36.5791 24.8515L36.8924 24.1719C37.037 24.2649 37.2118 24.3418 37.4166 24.4024C37.6215 24.459 37.8224 24.4874 38.0192 24.4874C38.4169 24.4874 38.6157 24.3883 38.6157 24.1901C38.6157 24.097 38.5615 24.0303 38.453 23.9898C38.3446 23.9493 38.1779 23.915 37.9529 23.8867C37.6878 23.8462 37.4689 23.7997 37.2961 23.7471C37.1234 23.6945 36.9728 23.6015 36.8442 23.468C36.7197 23.3345 36.6574 23.1444 36.6574 22.8976C36.6574 22.6912 36.7157 22.5092 36.8321 22.3514C36.9527 22.1896 37.1254 22.0642 37.3503 21.9752C37.5793 21.8862 37.8485 21.8417 38.1578 21.8417C38.3867 21.8417 38.6138 21.868 38.8387 21.9206C39.0676 21.9691 39.2565 22.0379 39.4051 22.1269L39.0918 22.8005C38.8066 22.6386 38.4952 22.5577 38.1578 22.5577C37.957 22.5577 37.8063 22.5861 37.7059 22.6427C37.6055 22.6993 37.5552 22.7721 37.5552 22.8611C37.5552 22.9623 37.6094 23.033 37.7179 23.0735C37.8264 23.114 37.9991 23.1524 38.2361 23.1888C38.5012 23.2333 38.7182 23.2818 38.8869 23.3345C39.0556 23.383 39.2023 23.474 39.3268 23.6075C39.4513 23.741 39.5135 23.9271 39.5135 24.1658C39.5135 24.368 39.4533 24.5481 39.3328 24.7058C39.2123 24.8636 39.0355 24.987 38.8025 25.076C38.5735 25.1609 38.3004 25.2034 37.983 25.2034Z" fill="white"/>
<path d="M25.7185 19.4906C25.3851 19.4906 25.0617 19.4461 24.7484 19.3571C24.4391 19.2641 24.19 19.1447 24.0012 18.9991L24.3326 18.2588C24.5134 18.3923 24.7284 18.4995 24.9774 18.5804C25.2264 18.6612 25.4755 18.7017 25.7246 18.7017C26.0017 18.7017 26.2066 18.6612 26.3392 18.5804C26.4717 18.4954 26.538 18.3842 26.538 18.2466C26.538 18.1454 26.4978 18.0626 26.4175 17.9978C26.3411 17.9291 26.2408 17.8745 26.1162 17.834C25.9957 17.7935 25.831 17.749 25.6221 17.7005C25.3008 17.6236 25.0376 17.5468 24.8328 17.4699C24.6279 17.393 24.4512 17.2697 24.3025 17.0998C24.1579 16.9298 24.0856 16.7033 24.0856 16.4201C24.0856 16.1733 24.1519 15.9509 24.2844 15.7526C24.417 15.5504 24.6158 15.3905 24.881 15.2733C25.1501 15.156 25.4775 15.0973 25.8631 15.0973C26.1323 15.0973 26.3954 15.1296 26.6525 15.1944C26.9096 15.2591 27.1346 15.3521 27.3274 15.4735L27.0261 16.2199C26.6364 15.9974 26.2468 15.8861 25.8571 15.8861C25.584 15.8861 25.3811 15.9306 25.2485 16.0196C25.12 16.1087 25.0557 16.226 25.0557 16.3716C25.0557 16.5172 25.13 16.6264 25.2787 16.6993C25.4313 16.768 25.6623 16.8368 25.9716 16.9056C26.2929 16.9825 26.5561 17.0593 26.761 17.1362C26.9658 17.2131 27.1406 17.3344 27.2852 17.5002C27.4339 17.6661 27.5081 17.8906 27.5081 18.1738C27.5081 18.4165 27.4399 18.6391 27.3033 18.8413C27.1707 19.0396 26.9699 19.1973 26.7007 19.3146C26.4315 19.4319 26.1042 19.4906 25.7185 19.4906ZM30.1997 19.26C30.1074 19.3287 29.9929 19.3814 29.8563 19.4178C29.7237 19.4501 29.5832 19.4663 29.4345 19.4663C29.0488 19.4663 28.7496 19.3672 28.5367 19.169C28.3279 18.9707 28.2233 18.6794 28.2233 18.2952V16.9541H27.7232V16.226H28.2233V15.431H29.1633V16.226H29.9708V16.9541H29.1633V18.283C29.1633 18.4206 29.1975 18.5277 29.2658 18.6046C29.3381 18.6775 29.4385 18.7139 29.5671 18.7139C29.7157 18.7139 29.8423 18.6734 29.9467 18.5925L30.1997 19.26ZM32.17 19.4663C31.8285 19.4663 31.5212 19.3955 31.2481 19.2539C30.9789 19.1083 30.768 18.908 30.6154 18.6532C30.4627 18.3983 30.3864 18.109 30.3864 17.7854C30.3864 17.4619 30.4627 17.1726 30.6154 16.9177C30.768 16.6629 30.9789 16.4646 31.2481 16.323C31.5212 16.1774 31.8285 16.1046 32.17 16.1046C32.5114 16.1046 32.8167 16.1774 33.0859 16.323C33.355 16.4646 33.5659 16.6629 33.7186 16.9177C33.8712 17.1726 33.9476 17.4619 33.9476 17.7854C33.9476 18.109 33.8712 18.3983 33.7186 18.6532C33.5659 18.908 33.355 19.1083 33.0859 19.2539C32.8167 19.3955 32.5114 19.4663 32.17 19.4663ZM32.17 18.6896C32.411 18.6896 32.6078 18.6087 32.7605 18.4469C32.9172 18.281 32.9955 18.0605 32.9955 17.7854C32.9955 17.5104 32.9172 17.2919 32.7605 17.1301C32.6078 16.9643 32.411 16.8813 32.17 16.8813C31.929 16.8813 31.7301 16.9643 31.5735 17.1301C31.4168 17.2919 31.3385 17.5104 31.3385 17.7854C31.3385 18.0605 31.4168 18.281 31.5735 18.4469C31.7301 18.6087 31.929 18.6896 32.17 18.6896ZM35.4737 16.584C35.5861 16.4262 35.7368 16.3068 35.9256 16.226C36.1185 16.1451 36.3393 16.1046 36.5885 16.1046V16.9784C36.4839 16.9703 36.4137 16.9663 36.3776 16.9663C36.1084 16.9663 35.8975 17.0432 35.7449 17.1968C35.5921 17.3466 35.5159 17.5731 35.5159 17.8765V19.4178H34.5759V16.1531H35.4737V16.584ZM40.4769 16.1531L39.0126 19.618C38.864 19.9942 38.6793 20.2592 38.4583 20.4129C38.2414 20.5666 37.9782 20.6435 37.6689 20.6435C37.5002 20.6435 37.3335 20.6173 37.1688 20.5646C37.0041 20.512 36.8695 20.4392 36.7651 20.3462L37.1085 19.6726C37.1808 19.7374 37.2632 19.7879 37.3556 19.8243C37.452 19.8607 37.5464 19.8789 37.6388 19.8789C37.7673 19.8789 37.8718 19.8466 37.9521 19.7818C38.0324 19.7212 38.1047 19.618 38.169 19.4724L38.1811 19.442L36.7771 16.1531H37.7472L38.6571 18.368L39.573 16.1531H40.4769Z" fill="white"/>
</g>
<defs>
<clipPath id="clip0_126_27">
<rect width="47" height="47" fill="white"/>
</clipPath>
</defs>
</svg>
