<svg width="69" height="69" viewBox="0 0 69 69" fill="none" xmlns="http://www.w3.org/2000/svg">
<g opacity="0.8" clip-path="url(#clip0_90_14)">
<path d="M63.4508 5.42603H0.401855V68.595H63.4508V5.42603Z" stroke="white" stroke-width="2.51825"/>
<path d="M68.5981 0.404907H5.87085V63.5739H68.5981V0.404907Z" stroke="white" stroke-width="2.51825"/>
<path d="M23.1687 30.6936L20.4883 36.9295H19.0729L16.4014 30.6936H17.9494L19.8337 35.1478L21.7444 30.6936H23.1687ZM27.8961 34.551C27.8961 34.5688 27.8872 34.6935 27.8695 34.9251H24.2691C24.334 35.222 24.4874 35.4567 24.7291 35.6289C24.9709 35.8011 25.2716 35.8872 25.6314 35.8872C25.8791 35.8872 26.0974 35.8516 26.2861 35.7803C26.4807 35.7031 26.6605 35.5843 26.8257 35.424L27.5599 36.2258C27.1116 36.7424 26.457 37.0008 25.5961 37.0008C25.0593 37.0008 24.5847 36.8968 24.1718 36.689C23.759 36.4752 23.4405 36.1812 23.2164 35.8071C22.9924 35.4329 22.8803 35.0082 22.8803 34.5331C22.8803 34.0639 22.9893 33.6423 23.2076 33.2681C23.4316 32.888 23.7355 32.594 24.1188 32.3862C24.508 32.1724 24.9414 32.0655 25.4191 32.0655C25.8851 32.0655 26.3066 32.1664 26.6841 32.3684C27.0616 32.5704 27.3564 32.8613 27.5688 33.2414C27.787 33.6156 27.8961 34.0521 27.8961 34.551ZM25.428 33.1167C25.1155 33.1167 24.853 33.2058 24.6407 33.384C24.4284 33.5621 24.2986 33.8056 24.2514 34.1144H26.5957C26.5486 33.8116 26.4188 33.571 26.2064 33.3929C25.9941 33.2087 25.7347 33.1167 25.428 33.1167ZM31.7075 32.0655C32.2973 32.0655 32.7721 32.2437 33.1317 32.6C33.4974 32.9564 33.6802 33.4849 33.6802 34.1857V36.9295H32.3002V34.3995C32.3002 34.0194 32.2176 33.7374 32.0525 33.5532C31.8874 33.3632 31.6486 33.2681 31.3359 33.2681C30.988 33.2681 30.7109 33.378 30.5044 33.5978C30.298 33.8116 30.1948 34.1323 30.1948 34.5599V36.9295H28.8148V32.1368H30.1329V32.698C30.3157 32.496 30.5428 32.3417 30.814 32.2348C31.0853 32.1219 31.3832 32.0655 31.7075 32.0655ZM38.0008 36.6979C37.865 36.7988 37.697 36.8761 37.4965 36.9295C37.3019 36.977 37.0954 37.0008 36.8773 37.0008C36.3112 37.0008 35.8718 36.8553 35.5592 36.5643C35.2525 36.2732 35.0992 35.8456 35.0992 35.2815V33.3127H34.365V32.2437H35.0992V31.0767H36.4792V32.2437H37.6646V33.3127H36.4792V35.2636C36.4792 35.4656 36.5293 35.6229 36.6296 35.7358C36.7358 35.8427 36.8831 35.8961 37.0719 35.8961C37.29 35.8961 37.4758 35.8367 37.6292 35.718L38.0008 36.6979ZM43.57 32.1368V36.9295H42.2608V36.3594C42.0779 36.5672 41.8598 36.7275 41.6062 36.8404C41.3525 36.9473 41.0783 37.0008 40.7835 37.0008C40.1583 37.0008 39.6629 36.8197 39.2973 36.4574C38.9317 36.095 38.7488 35.5576 38.7488 34.8449V32.1368H40.1288V34.64C40.1288 35.4122 40.4502 35.7981 41.0931 35.7981C41.4233 35.7981 41.6887 35.6912 41.8892 35.4774C42.0898 35.2576 42.19 34.934 42.19 34.5064V32.1368H43.57ZM46.1666 32.7693C46.3318 32.5377 46.5529 32.3624 46.83 32.2437C47.1131 32.1249 47.4375 32.0655 47.8031 32.0655V33.3483C47.6498 33.3365 47.5466 33.3305 47.4935 33.3305C47.0983 33.3305 46.7887 33.4434 46.5647 33.669C46.3406 33.8888 46.2285 34.2213 46.2285 34.6668V36.9295H44.8485V32.1368H46.1666V32.7693ZM53.2424 34.551C53.2424 34.5688 53.2335 34.6935 53.2158 34.9251H49.6155C49.6803 35.222 49.8337 35.4567 50.0755 35.6289C50.3172 35.8011 50.618 35.8872 50.9778 35.8872C51.2255 35.8872 51.4437 35.8516 51.6324 35.7803C51.827 35.7031 52.0068 35.5843 52.172 35.424L52.9062 36.2258C52.458 36.7424 51.8034 37.0008 50.9424 37.0008C50.4057 37.0008 49.931 36.8968 49.5182 36.689C49.1053 36.4752 48.7868 36.1812 48.5628 35.8071C48.3387 35.4329 48.2266 35.0082 48.2266 34.5331C48.2266 34.0639 48.3357 33.6423 48.5539 33.2681C48.778 32.888 49.0818 32.594 49.4651 32.3862C49.8543 32.1724 50.2878 32.0655 50.7655 32.0655C51.2314 32.0655 51.653 32.1664 52.0305 32.3684C52.4079 32.5704 52.7028 32.8613 52.9151 33.2414C53.1333 33.6156 53.2424 34.0521 53.2424 34.551ZM50.7743 33.1167C50.4618 33.1167 50.1993 33.2058 49.987 33.384C49.7747 33.5621 49.6449 33.8056 49.5978 34.1144H51.942C51.8949 33.8116 51.7651 33.571 51.5528 33.3929C51.3405 33.2087 51.081 33.1167 50.7743 33.1167ZM55.7623 37.0008C55.3672 37.0008 54.9809 36.9533 54.6034 36.8583C54.2261 36.7573 53.9253 36.6326 53.7011 36.4841L54.1611 35.4863C54.3734 35.6229 54.6299 35.7358 54.9307 35.8249C55.2315 35.908 55.5265 35.9496 55.8153 35.9496C56.3992 35.9496 56.6911 35.8041 56.6911 35.5131C56.6911 35.3765 56.6115 35.2785 56.4523 35.2191C56.293 35.1597 56.0484 35.1093 55.718 35.0677C55.3288 35.0082 55.0074 34.94 54.7538 34.8628C54.5003 34.7855 54.2792 34.649 54.0903 34.453C53.9076 34.257 53.8161 33.9779 53.8161 33.6156C53.8161 33.3127 53.9017 33.0454 54.0726 32.8138C54.2496 32.5762 54.5032 32.3922 54.8334 32.2615C55.1696 32.1308 55.5647 32.0655 56.0188 32.0655C56.3549 32.0655 56.6882 32.1041 57.0184 32.1813C57.3546 32.2526 57.6318 32.3535 57.8499 32.4842L57.3899 33.473C56.9713 33.2354 56.5142 33.1167 56.0188 33.1167C55.724 33.1167 55.5028 33.1583 55.3553 33.2414C55.208 33.3245 55.1342 33.4314 55.1342 33.5621C55.1342 33.7107 55.2138 33.8145 55.373 33.8739C55.5322 33.9334 55.7859 33.9897 56.1338 34.0432C56.523 34.1085 56.8415 34.1797 57.0892 34.257C57.3369 34.3283 57.5522 34.4619 57.7349 34.6579C57.9178 34.8539 58.0092 35.1271 58.0092 35.4774C58.0092 35.7743 57.9207 36.0387 57.7438 36.2703C57.5669 36.5019 57.3074 36.683 56.9653 36.8137C56.6292 36.9384 56.2282 37.0008 55.7623 37.0008Z" fill="white"/>
<path d="M37.757 28.6139C37.2676 28.6139 36.7928 28.5486 36.3328 28.4179C35.8787 28.2814 35.513 28.1061 35.2358 27.8923L35.7224 26.8055C35.9878 27.0015 36.3033 27.1589 36.6689 27.2776C37.0345 27.3964 37.4003 27.4558 37.7658 27.4558C38.1728 27.4558 38.4735 27.3964 38.6681 27.2776C38.8628 27.1529 38.9601 26.9896 38.9601 26.7877C38.9601 26.6391 38.901 26.5175 38.7832 26.4224C38.671 26.3215 38.5237 26.2413 38.3408 26.1819C38.1639 26.1225 37.9222 26.0572 37.6155 25.9859C37.1437 25.873 36.7574 25.7603 36.4566 25.6474C36.1558 25.5345 35.8964 25.3534 35.6781 25.104C35.4658 24.8545 35.3597 24.522 35.3597 24.1062C35.3597 23.7439 35.457 23.4174 35.6516 23.1263C35.8462 22.8294 36.1381 22.5947 36.5274 22.4225C36.9226 22.2504 37.4032 22.1642 37.9693 22.1642C38.3645 22.1642 38.7507 22.2116 39.1281 22.3067C39.5056 22.4018 39.8358 22.5383 40.1189 22.7165L39.6766 23.8122C39.1045 23.4856 38.5326 23.3223 37.9605 23.3223C37.5595 23.3223 37.2616 23.3876 37.067 23.5183C36.8783 23.649 36.7839 23.8212 36.7839 24.035C36.7839 24.2488 36.893 24.4091 37.1112 24.516C37.3353 24.6169 37.6745 24.718 38.1285 24.8189C38.6003 24.9318 38.9866 25.0445 39.2874 25.1574C39.5882 25.2703 39.8447 25.4485 40.057 25.6919C40.2753 25.9354 40.3843 26.265 40.3843 26.6808C40.3843 27.0371 40.2841 27.3638 40.0835 27.6607C39.8889 27.9518 39.5941 28.1834 39.1989 28.3556C38.8037 28.5277 38.3231 28.6139 37.757 28.6139ZM44.3358 28.2754C44.2002 28.3763 44.0321 28.4536 43.8316 28.507C43.637 28.5545 43.4306 28.5783 43.2123 28.5783C42.6462 28.5783 42.2069 28.4328 41.8943 28.1418C41.5877 27.8507 41.4343 27.4231 41.4343 26.8589V24.8902H40.7V23.8212H41.4343V22.6542H42.8143V23.8212H43.9996V24.8902H42.8143V26.8411C42.8143 27.0431 42.8644 27.2004 42.9646 27.3133C43.0708 27.4202 43.2183 27.4736 43.407 27.4736C43.6252 27.4736 43.811 27.4142 43.9643 27.2955L44.3358 28.2754ZM47.2283 28.5783C46.727 28.5783 46.2758 28.4743 45.8749 28.2665C45.4797 28.0527 45.1701 27.7587 44.946 27.3845C44.7218 27.0104 44.6099 26.5857 44.6099 26.1106C44.6099 25.6356 44.7218 25.2109 44.946 24.8367C45.1701 24.4626 45.4797 24.1715 45.8749 23.9637C46.2758 23.7499 46.727 23.643 47.2283 23.643C47.7295 23.643 48.1778 23.7499 48.573 23.9637C48.968 24.1715 49.2776 24.4626 49.5018 24.8367C49.7258 25.2109 49.838 25.6356 49.838 26.1106C49.838 26.5857 49.7258 27.0104 49.5018 27.3845C49.2776 27.7587 48.968 28.0527 48.573 28.2665C48.1778 28.4743 47.7295 28.5783 47.2283 28.5783ZM47.2283 27.438C47.5822 27.438 47.8711 27.3193 48.0953 27.0817C48.3253 26.8382 48.4403 26.5144 48.4403 26.1106C48.4403 25.7068 48.3253 25.3861 48.0953 25.1485C47.8711 24.9051 47.5822 24.7833 47.2283 24.7833C46.8745 24.7833 46.5826 24.9051 46.3526 25.1485C46.1226 25.3861 46.0076 25.7068 46.0076 26.1106C46.0076 26.5144 46.1226 26.8382 46.3526 27.0817C46.5826 27.3193 46.8745 27.438 47.2283 27.438ZM52.0784 24.3468C52.2435 24.1151 52.4646 23.9399 52.7419 23.8212C53.025 23.7024 53.3492 23.643 53.715 23.643V24.9258C53.5615 24.914 53.4584 24.908 53.4054 24.908C53.0102 24.908 52.7006 25.0209 52.4765 25.2465C52.2523 25.4663 52.1404 25.7988 52.1404 26.2443V28.507H50.7604V23.7143H52.0784V24.3468ZM59.4235 23.7143L57.2739 28.801C57.0556 29.3533 56.7844 29.7424 56.46 29.968C56.1416 30.1936 55.7552 30.3065 55.3012 30.3065C55.0535 30.3065 54.8087 30.268 54.5669 30.1907C54.3252 30.1134 54.1275 30.0065 53.9743 29.87L54.4785 28.8812C54.5846 28.9762 54.7056 29.0504 54.8412 29.1039C54.9827 29.1573 55.1214 29.184 55.2569 29.184C55.4456 29.184 55.5991 29.1366 55.7169 29.0415C55.8348 28.9524 55.941 28.801 56.0354 28.5872L56.0531 28.5426L53.9919 23.7143H55.4162L56.7519 26.9658L58.0966 23.7143H59.4235Z" fill="white"/>
</g>
<defs>
<clipPath id="clip0_90_14">
<rect width="69" height="69" fill="white"/>
</clipPath>
</defs>
</svg>
